<?xml version="1.0" encoding="utf-8"?>
<!-- Generator: Adobe Illustrator 26.0.0, SVG Export Plug-In . SVG Version: 6.00 Build 0)  -->
<svg version="1.1" xmlns="http://www.w3.org/2000/svg" xmlns:xlink="http://www.w3.org/1999/xlink" x="0px" y="0px"
	 viewBox="0 0 566.9 566.9" style="enable-background:new 0 0 566.9 566.9;" xml:space="preserve">
<style type="text/css">
	.st0{fill:none;stroke:#FFFFFF;stroke-linecap:round;stroke-linejoin:round;stroke-miterlimit:10;}
	.st1{stroke:#FFFFFF;stroke-linecap:round;stroke-linejoin:round;stroke-miterlimit:10;}
	.st2{fill:none;stroke:#FFFFFF;stroke-width:0.5;stroke-linecap:round;stroke-linejoin:round;stroke-miterlimit:10;}
	.st3{stroke:#FFFFFF;stroke-width:0.5;stroke-linecap:round;stroke-linejoin:round;stroke-miterlimit:10;}
	.st4{fill:#FFFFFF;}
	.st5{fill:none;stroke:#FFFFFF;stroke-miterlimit:10;}
	.st6{fill:none;stroke:#FFFFFF;stroke-width:0.25;stroke-linecap:round;stroke-linejoin:round;stroke-miterlimit:10;}
	.st7{stroke:#FFFFFF;stroke-width:0.1;stroke-miterlimit:10;}
</style>
<g id="Calque_1">
	<path class="st0" d="M463.3,396.8c-37.7,59.6-104.1,99.2-179.9,99.2c-75.7,0-142.2-39.6-179.9-99.2"/>
	<path class="st1" d="M120.6,396.8h325.7c-35.8,51.4-95.4,85-162.8,85C216,481.9,156.5,448.3,120.6,396.8z"/>
	<path class="st1" d="M481.9,283.5c0,19.7-2.9,38.7-8.2,56.7H93.3c-5.4-18-8.2-37-8.2-56.7C85,173.9,173.9,85,283.5,85
		C393,85,481.9,173.9,481.9,283.5z"/>
	<path class="st2" d="M93.3,340.2"/>
	<path class="st3" d="M81.5,340.2c-5.1-18-7.8-37-7.8-56.7c0-115.8,93.9-209.8,209.8-209.8c115.8,0,209.8,93.9,209.8,209.8
		c0,19.7-2.7,38.7-7.8,56.7h-8.8c5.3-18,8.1-37,8.1-56.7c0-111.1-90.1-201.3-201.3-201.3c-111.2,0-201.3,90.1-201.3,201.3
		c0,19.7,2.8,38.7,8.1,56.7H81.5z"/>
	<path class="st0" d="M78.5,340.2c-5-18-7.6-37.1-7.6-56.7C70.9,166,166,70.9,283.5,70.9c117.4,0,212.6,95.2,212.6,212.6
		c0,19.6-2.7,38.7-7.7,56.7"/>
	<path class="st3" d="M460,396.8c-37.3,58-102.4,96.4-176.5,96.4c-74.1,0-139.2-38.4-176.5-96.4h10.2c36.2,53,97.2,87.9,166.3,87.9
		s130.1-34.8,166.3-87.9H460z"/>
</g>
<g id="Calque_2">
	<g>
		<path class="st4" d="M241.5,420.5h0.3c0.3,0.9,0.9,1.7,1.7,2.3c0.8,0.6,1.7,0.9,2.6,0.9c0.7,0,1.4-0.2,1.9-0.5
			c0.5-0.3,0.8-0.7,0.8-1.1c0-0.4-0.3-0.8-0.8-1.1c-0.5-0.3-1.5-0.5-2.9-0.8c-1.4-0.3-2.4-0.6-3.1-1.1c-0.7-0.5-1-1.1-1-1.9
			c0-0.6,0.2-1.1,0.7-1.6c0,0.2-0.1,0.5-0.1,0.7c0,0.5,0.2,0.9,0.5,1.4c0.3,0.4,0.8,0.7,1.4,0.9c0.6,0.2,1.5,0.5,2.9,0.7
			c1.3,0.3,2.2,0.6,2.8,1c0.6,0.4,0.9,0.9,0.9,1.7c0,0.8-0.4,1.4-1.1,1.9c-0.7,0.5-1.8,0.7-3.1,0.7c-1.2,0-2.6-0.2-4.2-0.7
			c0-0.7,0-1.3-0.1-1.6c0-0.3-0.1-0.6-0.1-0.9C241.5,421.1,241.5,420.8,241.5,420.5z M251.4,417.3h-0.2c-0.4-0.9-1-1.6-1.9-2
			c-0.9-0.4-1.8-0.7-2.7-0.7c-0.7,0-1.3,0.1-1.9,0.4c-0.5,0.2-0.8,0.6-0.8,1c0,0.3,0.2,0.6,0.6,0.8c0.4,0.2,1.1,0.4,2.2,0.6
			c2.2,0.4,3.7,0.9,4.3,1.5s1,1.3,1,2c0,0.6-0.3,1.3-1,2c0.1-0.4,0.1-0.7,0.1-0.9c0-0.8-0.3-1.4-0.9-2.1c-0.6-0.6-2-1.1-4.1-1.6
			c-1.3-0.3-2.2-0.5-2.7-0.8c-0.5-0.3-0.8-0.8-0.8-1.4c0-0.7,0.4-1.3,1.1-1.7c0.7-0.4,1.8-0.6,3.3-0.6c1.4,0,2.8,0.2,4.2,0.7
			c0,0.2,0,0.4,0,0.4c0,0.4,0,0.7,0.1,1.1C251.4,416.3,251.4,416.7,251.4,417.3z"/>
		<path class="st4" d="M258.7,409l2.4,1.9l-0.8,0.7l-2.4-1.9L258.7,409z M258,420.7v-6.8h1.3v7.3c0,1.1,0.1,1.8,0.4,2.3
			c0.2,0.5,0.6,0.8,1.2,1h-0.5c-0.8-0.3-1.4-0.7-1.8-1.2C258.2,422.8,258,421.9,258,420.7z M260.3,407.6l2.4,1.9l-0.8,0.7l-2.4-1.9
			L260.3,407.6z M260.5,420.9v-7h1.3v7.3c0,1.8,0.7,2.7,2.2,2.7c0.5,0,0.9-0.1,1.2-0.2v0.3c-0.6,0.4-1.2,0.6-1.9,0.6
			c-0.6,0-1.2-0.2-1.6-0.5c-0.5-0.3-0.8-0.7-0.9-1.1C260.6,422.5,260.5,421.8,260.5,420.9z"/>
		<path class="st4" d="M272.1,413.9v10.4c-1.2,0-2.2,0.1-3.1,0.2v-0.3c0.5-0.1,1-0.4,1.3-0.8c0.3-0.4,0.5-1.3,0.5-2.7v-3.6
			c0-1-0.1-1.7-0.4-2.2c-0.3-0.4-0.8-0.8-1.7-1v-0.2C269.3,413.8,270.4,413.9,272.1,413.9z M273.3,424.3v-10.4c0.6,0,1.1,0,1.4-0.1
			l-0.1,0.8c1.4-0.6,2.8-0.9,4-0.9c0.8,0,1.5,0.2,2,0.5c0.6,0.3,0.9,0.7,1,1.2c0.1,0.4,0.2,1.2,0.2,2.1v6.9c-0.5,0-0.9,0-1.4,0.1
			c0.1-1.2,0.1-2.1,0.1-2.6v-4.7c0-1-0.2-1.6-0.5-2c-0.3-0.4-0.9-0.6-1.8-0.6c-0.9,0-2.2,0.3-3.7,1v6c0,1.6,0.7,2.5,2,2.8v0.3
			C275.2,424.4,274.1,424.3,273.3,424.3z M283.1,424.3v-7.1c0-1-0.1-1.7-0.2-2.1c-0.1-0.4-0.5-0.8-1.1-1.1c0.8,0,1.4,0.3,1.9,0.7
			c0.5,0.4,0.7,1.4,0.7,2.9v3.4c0,0.8,0.1,1.4,0.2,1.8c0.1,0.4,0.3,0.7,0.7,1c0.4,0.3,0.8,0.5,1.3,0.5v0.3c-0.4,0-1-0.1-1.9-0.1
			C283.7,424.4,283.2,424.3,283.1,424.3z"/>
		<path class="st4" d="M293.7,414.8c-1.2,0.9-1.8,2.3-1.8,4.3c0,1.9,0.5,3.3,1.5,4.2c-1-0.3-1.7-0.9-2.2-1.7
			c-0.5-0.8-0.8-1.7-0.8-2.5c0-0.6,0.1-1.3,0.4-1.9c0.3-0.6,0.6-1.1,1-1.4C292.3,415.5,292.9,415.1,293.7,414.8z M303.9,421h0.7
			c-0.3,1.1-1,1.9-2,2.6c-1,0.7-2.2,1-3.7,1c-1.3,0-2.4-0.2-3.1-0.7c-0.8-0.5-1.5-1.1-2-1.8c-0.5-0.8-0.8-1.7-0.8-2.9
			c0-1.6,0.5-2.9,1.6-4c1-1,2.6-1.6,4.9-1.6c1.6,0,3.1,0.2,4.7,0.7c0,0.1,0,0.2,0,0.4c0,0.1,0,0.2,0,0.3c0,0.3,0,0.8,0.1,1.3
			c0,0.3,0.1,0.6,0.1,0.7c0,0.2,0,0.4-0.1,0.8h-0.4c-0.3-1.1-0.8-1.9-1.7-2.5c-0.8-0.6-1.8-0.8-3-0.8c-1.3,0-2.4,0.4-3.3,1.1
			c-0.9,0.8-1.3,1.8-1.3,3.2c0,1.3,0.4,2.5,1.2,3.4c0.8,0.9,1.9,1.3,3.4,1.3C301.1,423.6,302.7,422.7,303.9,421z"/>
		<path class="st4" d="M311.5,423.2L311.5,423.2c-1.8-0.8-2.7-2.1-2.7-3.9c0-0.7,0.2-1.4,0.5-2c0.3-0.7,1-1.3,2-2l0.1,0.1
			c-0.7,1.1-1.1,2.3-1.1,3.8C310.3,420.7,310.7,422.1,311.5,423.2z M320.9,418.5h-8c0,0.5,0,0.8,0,0.9c0,1.3,0.4,2.3,1.2,3.1
			c0.8,0.8,1.9,1.1,3.2,1.1c1.1,0,2.1-0.2,2.9-0.7s1.6-1.2,2.1-2h0.7c-1.1,2.6-3.1,3.9-6,3.9c-1.8,0-3.2-0.5-4.1-1.6
			c-1-1-1.5-2.4-1.5-4c0-1.5,0.4-2.8,1.3-3.9c0.9-1,2-1.5,3.5-1.5c1.2,0,2.2,0.4,3,1.1C320.2,415.6,320.7,416.8,320.9,418.5z
			 M313.1,417.4h6.1c-0.1-0.7-0.3-1.3-0.8-1.9c-0.5-0.5-1.2-0.8-2.2-0.8c-0.8,0-1.5,0.2-2.1,0.7S313.2,416.6,313.1,417.4z
			 M323.6,418.5h-1.5c-0.1-1.8-0.6-3.1-1.6-3.9C322.3,415.2,323.4,416.5,323.6,418.5z"/>
	</g>
	<g>
		<path class="st4" d="M261.6,458.3h0.4l-1,2h-9.6l2-1.9c0.8-0.7,1.4-1.4,1.8-1.8c0.4-0.5,0.8-0.9,1-1.1c0.4-0.6,0.6-1.2,0.6-1.8
			c0-0.8-0.4-1.4-1.1-1.9c-0.7-0.5-1.5-0.7-2.4-0.7s-1.7,0.2-2.2,0.7c-0.6,0.5-0.9,1.2-0.9,2c0,0.4,0.1,0.7,0.2,1.1l-0.6,0.2
			c-0.4-0.5-0.6-1.1-0.6-1.7c0-1,0.4-1.8,1.3-2.5c0.9-0.7,1.9-1,3.1-1c1.3,0,2.4,0.4,3.3,1.1c0.9,0.8,1.4,1.6,1.4,2.6
			c0,1.3-1.1,2.9-3.2,4.7c-0.1,0-0.1,0.1-0.2,0.1c-0.1,0-0.1,0.1-0.2,0.1l-1,0.9h3.7c1.2,0,2.1-0.1,2.7-0.2
			C260.8,459.1,261.2,458.8,261.6,458.3z M250.5,461.4h10.1l-0.4,1h-6.9c-1,0-2.4,0.1-4,0.2L250.5,461.4z M251.4,449.4
			c0.9-0.8,2-1.2,3.5-1.2c1.4,0,2.6,0.4,3.6,1.2c1,0.8,1.5,1.8,1.5,2.9c0,0.5-0.2,1.1-0.6,1.6c0-1.4-0.6-2.6-1.7-3.5
			c-1.1-0.9-2.5-1.3-4.1-1.3C253,449,252.2,449.1,251.4,449.4z"/>
		<path class="st4" d="M268.4,452.9c-0.8,1-1.2,2.4-1.2,4.3c0,1.8,0.4,3.1,1.2,3.9c-1.8-0.9-2.7-2.3-2.7-4.1
			C265.8,455.1,266.6,453.7,268.4,452.9z M268.3,456.9c0-1.7,0.5-3.1,1.4-4.1c1-1.1,2.3-1.6,3.9-1.6c1.4,0,2.6,0.5,3.7,1.4
			c1,0.9,1.5,2.4,1.5,4.4c0,1.9-0.5,3.3-1.5,4.2c-1,0.9-2.2,1.4-3.8,1.4c-1.2,0-2.2-0.3-3-0.8c-0.8-0.5-1.4-1.2-1.7-2
			C268.5,459.1,268.3,458.1,268.3,456.9z M269.8,457.4c0,1.6,0.4,2.7,1.1,3.4c0.7,0.7,1.7,1,2.7,1c1.1,0,2-0.4,2.7-1.1
			c0.7-0.7,1.1-1.9,1.1-3.7c0-3.2-1.3-4.8-3.8-4.8C271,452.2,269.8,453.9,269.8,457.4z M278.8,461.1c0.8-1,1.2-2.4,1.2-4.2
			c0-1.7-0.4-3-1.2-4.1c1.8,1,2.6,2.4,2.6,4.1C281.5,458.7,280.6,460.1,278.8,461.1z"/>
		<path class="st4" d="M297.9,458.3h0.4l-1,2h-9.6l2-1.9c0.8-0.7,1.4-1.4,1.8-1.8c0.4-0.5,0.8-0.9,1-1.1c0.4-0.6,0.6-1.2,0.6-1.8
			c0-0.8-0.4-1.4-1.1-1.9c-0.7-0.5-1.5-0.7-2.4-0.7c-0.9,0-1.7,0.2-2.2,0.7c-0.6,0.5-0.9,1.2-0.9,2c0,0.4,0.1,0.7,0.2,1.1l-0.6,0.2
			c-0.4-0.5-0.6-1.1-0.6-1.7c0-1,0.4-1.8,1.3-2.5c0.9-0.7,1.9-1,3.1-1c1.3,0,2.4,0.4,3.3,1.1c0.9,0.8,1.4,1.6,1.4,2.6
			c0,1.3-1.1,2.9-3.2,4.7c-0.1,0-0.1,0.1-0.2,0.1c-0.1,0-0.1,0.1-0.2,0.1l-1,0.9h3.7c1.2,0,2.1-0.1,2.7-0.2
			C297.1,459.1,297.5,458.8,297.9,458.3z M286.8,461.4h10.1l-0.4,1h-6.9c-1,0-2.4,0.1-4,0.2L286.8,461.4z M287.7,449.4
			c0.9-0.8,2-1.2,3.5-1.2c1.4,0,2.6,0.4,3.6,1.2c1,0.8,1.5,1.8,1.5,2.9c0,0.5-0.2,1.1-0.6,1.6c0-1.4-0.6-2.6-1.7-3.5
			c-1.1-0.9-2.5-1.3-4.1-1.3C289.2,449,288.5,449.1,287.7,449.4z"/>
		<path class="st4" d="M302.8,456.5h-0.3c0-0.3,0-0.6,0.1-0.9c0.1-0.4,0.3-0.9,0.5-1.6h9.8l-4.8,4.8c2.9,0.6,4.4,2.2,4.4,4.8
			c0,1.5-0.6,2.8-1.8,3.7c-1.2,0.9-2.6,1.4-4.1,1.4c-1.1,0-2.2-0.3-3.1-0.9c-0.9-0.6-1.5-1.5-1.8-2.7h0.5c0.4,0.9,1,1.5,1.8,2
			c0.8,0.4,1.7,0.6,2.6,0.6c1.3,0,2.3-0.3,3.2-1c0.9-0.7,1.3-1.7,1.3-3c0-1.3-0.4-2.3-1.3-3.1c-0.9-0.7-1.9-1.1-3.1-1.1
			c-0.2,0-0.5,0-0.9,0l4.6-4.6h-4.3c-1,0-1.7,0.1-2.2,0.3C303.5,455.4,303.1,455.8,302.8,456.5z M303.5,452h11.4l-1,1h-10.6
			L303.5,452z M312,467.5c0.5-0.3,1-0.9,1.3-1.7c0.3-0.8,0.5-1.5,0.5-2.2c0-1.4-0.5-2.7-1.6-3.9c2,0.9,3,2.3,3,4
			c0,1.1-0.3,1.9-1,2.6C313.6,466.9,312.8,467.3,312,467.5z"/>
	</g>
	<g>
		<path class="st4" d="M280.9,436l0.7-0.6l2.2,1.8l-0.7,0.6L280.9,436z M282.3,434.8l0.7-0.6l2.2,1.8l-0.7,0.6L282.3,434.8z"/>
	</g>
	<path class="st0" d="M218.5,256.7c0.3,3.2,1.7,10.4,7.4,20.7c4.4,8.3,4.8,9.5,4.8,9.5s1,2,1,5.9c0,3.8-1,5.7-3.1,6.5
		s-7.1,1.3-7.5,3.7c-0.3,2.5-0.1,5.8,2.2,5.8c2.3,0,10.5,0,10.5,0s5.4-2.6,5.4-14.3c0-4.7-1-10.1-4.4-19.9
		c-1.5-3.4-3.5-7.9-3.8-18.6c0,0-3-1.3-6.6-1C220.7,255.3,218.5,256.7,218.5,256.7z"/>
	<path class="st0" d="M348.1,256.7c-0.3,3.2-1.7,10.4-7.4,20.7c-4.3,8.3-4.8,9.5-4.8,9.5s-1,2-1,5.9c0,3.8,1,5.7,3.1,6.5
		c2.2,0.8,7.1,1.3,7.5,3.7s0.1,5.8-2.2,5.8s-10.5,0-10.5,0s-5.4-2.6-5.4-14.3c0-4.7,1-10.1,4.4-19.9c1.5-3.4,3.5-7.9,3.8-18.6
		c0,0,3-1.3,6.6-1C345.8,255.3,348.1,256.7,348.1,256.7z"/>
	<path class="st0" d="M206.9,241v5.7c0,0-7.4,7.2-7.4,21.8c0,14.6,14.5,30.4,14.5,37.1s-4.1,6.1-4.1,6.1c-5.1,0-9.1,2.5-9.1,5.6
		s4.1,5.6,9.1,5.6c2,0,3.9-0.5,5.4-1.2c0,0,6-0.5,6-18.8c0-18.2-9.3-16.7-9.3-36.5c0-4.5,4.2-12.3,12.7-12.3
		c8.5,0,11.6,3.6,11.6,7.4c0,3.7-1.9,2.5-2.6,1.8c-0.7-0.7-1,4.3,4.1,4.3c5.1,0,6.9-6.9,5.8-8.1c0,0,7.7,2.6,7.7-4.1
		c0,0-4.4,3.5-4.4-3.5c0-7,12.3-6.9,12.3-6.9s9.7-0.6,9.7,4.5c0,1.9-0.7,4.9-3,1.6c0,4.3,2.1,5.3,5.6,5c3.5-0.3,6.3-1.7,6.3-7.1
		c0,5.3,1.4,7.3,5,9.8h1.6c3.6-2.5,5-4.5,5-9.8c0,5.4,2.7,6.9,6.3,7.1c3.5,0.3,5.6-0.8,5.6-5c-2.4,3.4-3,0.4-3-1.6
		c0-5.2,9.7-4.5,9.7-4.5s12.3-0.1,12.3,6.9c0,7-4.4,3.5-4.4,3.5c0,6.7,7.7,4.1,7.7,4.1c-1.2,1.3,0.7,8.1,5.7,8.1s4.8-5,4-4.3
		c-0.7,0.7-2.6,1.9-2.6-1.8c0-3.7,3.1-7.4,11.6-7.4s12.7,7.8,12.7,12.3c0,19.8-9.3,18.2-9.3,36.5c0,18.2,6,18.8,6,18.8
		c1.5,0.7,3.4,1.2,5.4,1.2c5,0,9.1-2.5,9.1-5.6s-4.1-5.6-9.1-5.6c0,0-4,0.6-4-6.1s14.5-22.5,14.5-37.1c0-14.6-7.4-21.8-7.4-21.8V241
		H206.9z"/>
	<rect x="198.9" y="228.2" class="st0" width="169.2" height="12.4"/>
	<path class="st5" d="M320.8,270.6c0,2.6-2.1,4.7-4.7,4.7h-65c-2.6,0-4.7-2.1-4.7-4.7c0-2.6,2.1-4.7,4.7-4.7h65
		C318.7,265.9,320.8,268,320.8,270.6z"/>
	<path class="st0" d="M261.6,276l-10,0c-0.5,2-0.9,4.3-0.9,6.9c0,10.2,10.1,21.2,10.1,25.9S258,313,258,313c-3.5,0-6.4,1.8-6.4,3.9
		c0,2.2,2.9,3.9,6.4,3.9c1.4,0,2.7-0.3,3.8-0.8c0,0,4.2-0.4,4.2-13.1s-6.5-11.6-6.5-25.4c0-1.6,0.8-3.8,2.3-5.5"/>
	<path class="st0" d="M305.9,276l10.1,0c0.5,2,0.9,4.3,0.9,6.9c0,10.2-10.2,21.2-10.2,25.9s2.8,4.2,2.8,4.2c3.6,0,6.4,1.8,6.4,3.9
		c0,2.2-2.9,3.9-6.4,3.9c-1.4,0-2.7-0.3-3.8-0.8c0,0-4.2-0.4-4.2-13.1s6.5-11.6,6.5-25.4c0-1.6-0.8-3.8-2.3-5.5"/>
	<path class="st0" d="M284.1,220c31.6,0,33.1-17.4,33.1-17.4c0,15.9,9.3,19.2,16.7,20.3c7.5,1.1,9.9-1,10.1-3.3
		c0.3-2.3-0.8-5.8-5.5-5.8c-4.5,0-2.4,4.5-2.4,4.5s0.2,1.8-3.6,1.8s-11.1-6.5-12-13.9c-0.9-7.4,3.1-8,3.1-8c-1,1.3-1.6,4.3,2.1,4.7
		c3.7,0.4,4.1-5,4.1-5s0.3-5-4.6-5.1c-5-0.1-5.8,2.3-5.8,2.3s0-23.4,0-26.5c0.5-2.5,2.5-7.8,6.1-7.8s3.8,2.1,3.8,4.4
		c0,2.3-3.8,2.7-3.8,2.7c0,2.1,0.9,3.6,3.1,3.6s5.1-2.5,5.2-6.7s-1.8-7.1-7.8-10.7c-6-3.5-9.7-5.8-12.2-9.9
		c-2.5-4.1-1.9-3.9-2.2-6.7c-0.8-6.7,4-6.3,5.8-6.3s2.1,2.1,0.5,3.7c-0.7,0-0.7,0-0.7,0.7c0,0.7,1.1,0.6,1.1,0.6
		c1.6,0,2.7-1.8,2.7-3.9c0-2.1-5.8-9-10.9-9s-9.7,2.7-13.1,2.5c-3.4-0.3-3.4-0.9-3.4-2.1c0-1.2,0-2.5,1.6-2.4s1.9,1.9,1.9,1.9
		s-0.2-1.1,0.6-2s0.7-3.9-2-4.1c-2.6-0.1-5.2,1.9-5.2,1.9c1-1.8,0-3.7-3.5-5.3c-2.9-1.4-3.5-5.1-3.5-6.2c0,0-0.2-0.2-0.2,0.2
		c-0.1,1.3-0.8,4.6-3.5,5.9c-3.5,1.6-4.4,3.5-3.5,5.3c0,0-2.6-2-5.2-1.9c-2.6,0.1-2.7,3.2-2,4.1c0.8,0.8,0.6,2,0.6,2
		s0.3-1.8,1.9-1.9s1.6,1.2,1.6,2.4c0,1.2,0,1.8-3.4,2.1c-3.4,0.3-8.1-2.5-13.1-2.5c-5,0-10.8,6.9-10.8,9c0,2.1,1.2,3.9,2.7,3.9
		c0,0,1.1,0.1,1.1-0.6c0-0.7,0-0.7-0.7-0.7c-1.6-1.6-1.3-3.7,0.5-3.7s6.7-0.4,5.8,6.3c-0.3,2.8,0.3,2.7-2.2,6.7
		c-2.5,4.1-6.1,6.3-12.2,9.9c-6,3.5-7.9,6.5-7.8,10.7c0.1,4.2,3,6.7,5.2,6.7s3.1-1.5,3.1-3.6c0,0-3.8-0.4-3.8-2.7
		c0-2.3,0.2-4.4,3.8-4.4s5.7,5.3,6.1,7.8c0,3.1,0,26.5,0,26.5s-0.8-2.4-5.8-2.3c-5,0.1-4.6,5.1-4.6,5.1s0.5,5.4,4.1,5
		c3.7-0.4,3.1-3.4,2.1-4.7c0,0,4,0.6,3.1,8s-8.2,13.9-12,13.9s-3.6-1.8-3.6-1.8s2.1-4.5-2.4-4.5c-4.6,0-5.8,3.5-5.5,5.8
		c0.3,2.3,2.7,4.4,10.1,3.3c7.4-1.1,16.7-4.4,16.7-20.3c0,0,1.4,17.4,33.1,17.4H284.1z"/>
	<path class="st6" d="M275.9,124.8c0,0-2.3,7.4-11.2,2.9C264.6,127.7,273.6,132.3,275.9,124.8z"/>
	<path class="st6" d="M249,130c0,0,2.4-3.3,6.7-3.3C255.7,126.8,251.4,126.5,249,130z"/>
	<path class="st6" d="M253.2,129.4c0,0,3.5-0.1,3.7,2.9C256.8,132.3,256.7,129.2,253.2,129.4z"/>
	<path class="st6" d="M258.2,137.9c0,0,1.1,9.8-10.6,16.2C247.6,154.1,259.5,147.5,258.2,137.9z"/>
	<path class="st6" d="M242.4,158.5c0,0,6.3-0.3,8.3,9.1C250.7,167.5,248.7,157.9,242.4,158.5z"/>
	<path class="st6" d="M239.8,168.8c0,0-3.4,1.4-4.8-3.6C235,165.2,236.1,170.2,239.8,168.8z"/>
	<path class="st6" d="M242.1,200.1c0,0-4.3-2.2-1-4.1C241.1,196.1,238,198,242.1,200.1z"/>
	<path class="st6" d="M251.1,192.8c0,0-2.1,7.6,4.2,17C255.3,209.8,249.1,200.3,251.1,192.8z"/>
	<path class="st6" d="M229.1,216.4c0,0,1.8,1.6-0.8,3.1C228.2,219.4,231.4,218.1,229.1,216.4z"/>
	<path class="st6" d="M225.7,216.6c0,0-2.2,2.4,1.4,3.1C227,219.6,223.3,219.1,225.7,216.6z"/>
	<path class="st6" d="M260.5,213c0,0,5.8,4.2,22.7,4.2C283.2,217.3,266.2,217.1,260.5,213z"/>
	<path class="st6" d="M271.2,119.6c0,0,3.2-2.2,5.1,2.5C276.3,122.1,274.2,117.5,271.2,119.6z"/>
	<path class="st6" d="M282.7,114.5c0,0-4.2,0.2-4.4,4.2C278.3,118.7,278.1,114.7,282.7,114.5z"/>
	<path class="st6" d="M290.8,124.8c0,0,2.3,7.4,11.4,2.9C302.2,127.7,293.1,132.3,290.8,124.8z"/>
	<path class="st6" d="M318,130c0,0-2.4-3.3-6.8-3.3C311.2,126.8,315.6,126.5,318,130z"/>
	<path class="st6" d="M313.8,129.4c0,0-3.5-0.1-3.7,2.9C310.1,132.3,310.2,129.2,313.8,129.4z"/>
	<path class="st6" d="M308.7,137.9c0,0-1.1,9.8,10.7,16.2C319.4,154.1,307.4,147.5,308.7,137.9z"/>
	<path class="st6" d="M324.7,158.5c0,0-6.4-0.3-8.4,9.1C316.3,167.5,318.4,157.9,324.7,158.5z"/>
	<path class="st6" d="M327.3,168.8c0,0,3.4,1.4,4.9-3.6C332.2,165.2,331.1,170.2,327.3,168.8z"/>
	<path class="st6" d="M325,200.1c0,0,4.4-2.2,1.1-4.1C326,196.1,329.2,198,325,200.1z"/>
	<path class="st6" d="M315.9,192.8c0,0,2.1,7.6-4.3,17C311.6,209.8,317.9,200.3,315.9,192.8z"/>
	<path class="st6" d="M338.2,216.4c0,0-1.8,1.6,0.9,3.1C339.1,219.4,335.9,218.1,338.2,216.4z"/>
	<path class="st6" d="M341.6,216.6c0,0,2.2,2.4-1.4,3.1C340.3,219.6,344,219.1,341.6,216.6z"/>
	<path class="st6" d="M306.4,213c0,0-5.9,4.2-23,4.2C283.4,217.3,300.6,217.1,306.4,213z"/>
	<path class="st6" d="M295.6,119.6c0,0-3.2-2.2-5.2,2.5C290.4,122.1,292.5,117.5,295.6,119.6z"/>
	<path class="st6" d="M284,114.5c0,0,4.3,0.2,4.4,4.2C288.4,118.7,288.5,114.7,284,114.5z"/>
	<path class="st6" d="M202.9,231.8H214H202.9z"/>
	<path class="st6" d="M248.4,231.8h6.7H248.4z"/>
	<path class="st6" d="M265.2,231.8h6.7H265.2z"/>
	<path class="st6" d="M298.8,231.8h16.7H298.8z"/>
	<path class="st6" d="M202.9,233.5h15.4H202.9z"/>
	<path class="st6" d="M202.9,236.2h25H202.9z"/>
	<path class="st6" d="M211.9,225h25H211.9z"/>
	<path class="st6" d="M245.1,236.2h38.3H245.1z"/>
	<path class="st6" d="M245.1,223h38.3H245.1z"/>
	<path class="st6" d="M300.6,236.2h20.3H300.6z"/>
	<path class="st6" d="M291.6,223h20.3H291.6z"/>
	<path class="st6" d="M342.3,236.2h20.3H342.3z"/>
	<path class="st6" d="M337.9,234h24.7H337.9z"/>
	<path class="st6" d="M350.7,231.8h11.9H350.7z"/>
	<path class="st6" d="M343.7,225h11.9H343.7z"/>
	<line class="st6" x1="211" y1="226.5" x2="230" y2="226.5"/>
	<line class="st6" x1="271.3" y1="227" x2="300.3" y2="227"/>
	<line class="st6" x1="357.6" y1="226.9" x2="343.4" y2="226.9"/>
	<path class="st6" d="M257.5,253.4"/>
	<path class="st6" d="M209.1,251.9c0,0-9,5.1-4,17.9C205.1,269.7,200.2,256.8,209.1,251.9z"/>
	<path class="st6" d="M218.8,251.2c0,0-13.1,1.7-10.7,18.6C208.1,269.8,205.7,252.9,218.8,251.2z"/>
	<path class="st6" d="M214,258.5c0,0-5,1-4.1,12.2C209.9,270.7,209.1,259.4,214,258.5z"/>
	<path class="st6" d="M207.7,276.9c0,0-0.1,5.5,8.2,17.6C215.9,294.5,207.4,282.5,207.7,276.9z"/>
	<path class="st6" d="M217.9,309.4c0,0,2.2,6.3-1.8,9.4C216,318.8,220.1,315.6,217.9,309.4z"/>
	<path class="st6" d="M210.2,315.1c0,0-4.5,0-2.6,3C207.6,318.1,205.3,314.9,210.2,315.1z"/>
	<path class="st6" d="M213.2,247.1h9.6H213.2z"/>
	<path class="st6" d="M229.3,251.2c0,0,7.6-2.3,10.7,6.2C240,257.3,236.9,248.9,229.3,251.2z"/>
	<path class="st6" d="M249.7,242.6c0,0-6.7,0.2-8.3,8.7C241.4,251.3,243.8,242.9,249.7,242.6z"/>
	<path class="st6" d="M242.1,253.1c0,0-0.4,4.4,5.2,4.3C247.3,257.3,241.7,257.4,242.1,253.1z"/>
	<path class="st6" d="M255.8,243c0,0-8.3-0.3-10.9,8.3C244.9,251.2,247.7,242.7,255.8,243z"/>
	<path class="st6" d="M238.2,265.2c0,0,2.6-0.4,3.4-4.7C241.6,260.5,240.7,264.7,238.2,265.2z"/>
	<path class="st6" d="M214.7,245h5.5H214.7z"/>
	<path class="st6" d="M213.7,242.3h9.8H213.7z"/>
	<path class="st6" d="M229.2,243.1h10.4H229.2z"/>
	<path class="st6" d="M229.5,245.2c0,0,5.4-1.7,8,1.8C237.5,247,234.8,243.4,229.5,245.2z"/>
	<path class="st6" d="M229.7,247.6c0,0,5.1-1.7,9.8,4.4C239.5,252,234.5,245.8,229.7,247.6z"/>
	<path class="st6" d="M266.9,243.8c0,0,9.2,1.5,5.8,7.5C272.7,251.2,276.1,245.2,266.9,243.8z"/>
	<path class="st6" d="M272,242.5c0,0,5.7,1,4.2,6.5C276.1,249.1,277.7,243.3,272,242.5z"/>
	<path class="st6" d="M280.5,242.9c0,0-0.6,4.5,1.5,9.3C282,252.2,280,247.5,280.5,242.9z"/>
	<path class="st6" d="M224,256.7c0,0-2.6,4.8,6.7,19.3C230.8,276,221.7,261.4,224,256.7z"/>
	<path class="st6" d="M232.9,281.7c0,0,6.8,10.6,0.6,19C233.5,300.7,239.8,292.5,232.9,281.7z"/>
	<path class="st6" d="M228.7,300.5c0,0-4,1-3.6,4.2C225.2,304.7,224.7,301.5,228.7,300.5z"/>
	<path class="st6" d="M229.1,305c0,0,2.2,1,4.2-1C233.3,304,231,306.2,229.1,305z"/>
	<path class="st6" d="M254.9,278.7c0,0-3.8,4.1-0.4,12.5C254.5,291.2,251.1,282.9,254.9,278.7z"/>
	<path class="st6" d="M256.9,282.3c0,0-2.7,2.8-1.4,10.2C255.5,292.5,254,285.4,256.9,282.3z"/>
	<path class="st6" d="M258.4,282c0,0-2.6,3-0.2,9.5C258.2,291.5,255.8,285.2,258.4,282z"/>
	<path class="st6" d="M258.7,295.9c0,0,7,7.4,6,12.5C264.7,308.5,265.9,303.4,258.7,295.9z"/>
	<path class="st6" d="M262.3,306.4c0,0,2.5,3.7,1.7,7.2C263.9,313.6,264.7,309.6,262.3,306.4z"/>
	<path class="st6" d="M256.5,317.1c0,0,2.8,2.4,5.4,0.1C261.9,317.2,259.3,319.8,256.5,317.1z"/>
	<path class="st6" d="M254.4,316.8c0,0,0.9-3,5.1-2.9C259.4,313.9,254.9,313.9,254.4,316.8z"/>
	<path class="st6" d="M252.8,268.1c0,0,2.6,4.4,7.1,5.7C259.9,273.7,255.6,272.7,252.8,268.1z"/>
	<path class="st6" d="M260.4,268.1c0,0,2.6,4.4,7.1,5.7C267.5,273.7,263.2,272.7,260.4,268.1z"/>
	<path class="st6" d="M270.8,268.1c0,0,2.6,4.4,7.1,5.7C278,273.7,273.6,272.7,270.8,268.1z"/>
	<path class="st6" d="M309.9,253.4"/>
	<path class="st6" d="M358.3,251.9c0,0,9,5.1,4,17.9C362.4,269.7,367.3,256.8,358.3,251.9z"/>
	<path class="st6" d="M348.7,251.2c0,0,13.1,1.7,10.7,18.6C359.4,269.8,361.8,252.9,348.7,251.2z"/>
	<path class="st6" d="M353.5,258.5c0,0,5,1,4.1,12.2C357.6,270.7,358.3,259.4,353.5,258.5z"/>
	<path class="st6" d="M359.8,276.9c0,0,0.1,5.5-8.2,17.6C351.6,294.5,360.1,282.5,359.8,276.9z"/>
	<path class="st6" d="M349.6,309.4c0,0-2.2,6.3,1.8,9.4C351.5,318.8,347.4,315.6,349.6,309.4z"/>
	<path class="st6" d="M357.3,315.1c0,0,4.5,0,2.6,3C359.9,318.1,362.2,314.9,357.3,315.1z"/>
	<path class="st6" d="M354.2,247.1h-9.6H354.2z"/>
	<path class="st6" d="M338.2,251.2c0,0-7.6-2.3-10.7,6.2C327.5,257.3,330.5,248.9,338.2,251.2z"/>
	<path class="st6" d="M317.8,242.6c0,0,6.7,0.2,8.3,8.7C326.1,251.3,323.6,242.9,317.8,242.6z"/>
	<path class="st6" d="M325.4,253.1c0,0,0.4,4.4-5.2,4.3C320.1,257.3,325.7,257.4,325.4,253.1z"/>
	<path class="st6" d="M311.7,243c0,0,8.3-0.3,10.9,8.3C322.6,251.2,319.7,242.7,311.7,243z"/>
	<path class="st6" d="M329.3,265.2c0,0-2.6-0.4-3.4-4.7C325.9,260.5,326.8,264.7,329.3,265.2z"/>
	<path class="st6" d="M352.8,245h-5.5H352.8z"/>
	<path class="st6" d="M353.8,242.3H344H353.8z"/>
	<path class="st6" d="M338.3,243.1h-10.4H338.3z"/>
	<path class="st6" d="M337.9,245.2c0,0-5.4-1.7-8,1.8C329.9,247,332.7,243.4,337.9,245.2z"/>
	<path class="st6" d="M337.8,247.6c0,0-5.1-1.7-9.8,4.4C328,252,333,245.8,337.8,247.6z"/>
	<path class="st6" d="M300.5,243.8c0,0-9.2,1.5-5.8,7.5C294.8,251.2,291.4,245.2,300.5,243.8z"/>
	<path class="st6" d="M295.5,242.5c0,0-5.7,1-4.2,6.5C291.3,249.1,289.7,243.3,295.5,242.5z"/>
	<path class="st6" d="M287.2,245.8c0,0-0.3,4.6-3.3,8.8C283.8,254.6,286.7,250.4,287.2,245.8z"/>
	<path class="st6" d="M343.4,256.7c0,0,2.6,4.8-6.7,19.3C336.7,276,345.8,261.4,343.4,256.7z"/>
	<path class="st6" d="M334.5,281.7c0,0-6.8,10.6-0.6,19C333.9,300.7,327.6,292.5,334.5,281.7z"/>
	<path class="st6" d="M338.7,300.5c0,0,4,1,3.6,4.2C342.3,304.7,342.7,301.5,338.7,300.5z"/>
	<path class="st6" d="M338.4,305c0,0-2.2,1-4.2-1C334.2,304,336.5,306.2,338.4,305z"/>
	<path class="st6" d="M312.6,278.7c0,0,3.8,4.1,0.4,12.5C313,291.2,316.3,282.9,312.6,278.7z"/>
	<path class="st6" d="M310.6,282.3c0,0,2.7,2.8,1.4,10.2C312,292.5,313.4,285.4,310.6,282.3z"/>
	<path class="st6" d="M309.1,282c0,0,2.6,3,0.2,9.5C309.2,291.5,311.7,285.2,309.1,282z"/>
	<path class="st6" d="M308.7,295.9c0,0-7,7.4-6,12.5C302.7,308.5,301.6,303.4,308.7,295.9z"/>
	<path class="st6" d="M305.1,306.4c0,0-2.5,3.7-1.7,7.2C303.5,313.6,302.7,309.6,305.1,306.4z"/>
	<path class="st6" d="M311,317.1c0,0-2.8,2.4-5.4,0.1C305.6,317.2,308.1,319.8,311,317.1z"/>
	<path class="st6" d="M313.1,316.8c0,0-0.9-3-5.1-2.9C308,313.9,312.6,313.9,313.1,316.8z"/>
	<path class="st6" d="M314.7,268.1c0,0-2.6,4.4-7.2,5.7C307.5,273.7,311.9,272.7,314.7,268.1z"/>
	<path class="st6" d="M307.1,268.1c0,0-2.6,4.4-7.2,5.7C299.9,273.7,304.3,272.7,307.1,268.1z"/>
	<path class="st6" d="M296.6,268.1c0,0-2.6,4.4-7.2,5.7C289.5,273.7,293.8,272.7,296.6,268.1z"/>
	<path class="st0" d="M279.5,233.2h17.8H279.5z"/>
	<path class="st0" d="M311,225.2h17.8H311z"/>
	<path class="st0" d="M242.3,225.9h17.8H242.3z"/>
	<path class="st0" d="M320,234h14.1H320z"/>
	<path class="st0" d="M224,231.4h16.5H224z"/>
	<path class="st4" d="M254.2,178.1V199c0,8.6,11.6,15.7,26.6,16.6h5.4c1.7-0.1,3.4-0.3,5-0.6L254.2,178.1z"/>
	<path class="st4" d="M305.7,145.3c3.2,5,9.3,11.2,14.9,11.8c-2.3,0-3.9,1-5.1,2.3l-2,3.6l-39.8-31.5c5.5,0,6.9-6.8,6.9-6.8
		l24.8,20.3"/>
	<path class="st4" d="M258.2,148.9c-3.4,4-8,7.8-12.4,8.3c7.7,0,8.4,10.9,8.4,10.9l47.3,43.9c6.6-3.1,10.9-7.7,10.9-13L258.2,148.9z
		"/>
	<path class="st4" d="M312.1,167.9l-45-36.5c-2.4-0.2-4.6-0.7-6.7-1.6c2.7,2.7,3.4,6.8,2.5,10.8l49.5,49.2V168"/>
	<path class="st0" d="M283.8,121.6c-1.6,0.2-2.7,1.6-2.7,3.2c0,0-1.4,6.8-6.9,6.8s-9.5-0.2-13.3-1.8c3.7,3.7,3.7,10.5,0.5,15.5
		s-9.4,11.2-15.1,11.8c7.7,0,8.4,10.9,8.4,10.9V199c0,8.6,11.6,15.7,26.6,16.6h5.4c14.7-0.9,26.2-8,26.2-16.6V168
		c0,0,0.7-10.9,8.3-10.9c-5.6-0.6-11.7-6.9-14.9-11.8s-3.2-11.8,0.5-15.5c-3.8,1.7-7.7,1.8-13.2,1.8s-6.8-6.8-6.8-6.8
		c0-1.6-1.2-3-2.7-3.2H283.8z"/>
	<path class="st0" d="M325.2,220h-83.1c-15.4,7.5-19,0-19,0h-5.8l-18.4,8.2h169.2l-18.4-8.2h-5.7C343.9,220,340.8,227.4,325.2,220z"
		/>
</g>
<g id="Calque_4">
	<g>
		<path class="st7" d="M98.7,378.6h-0.3v-20.6h16.5v0.2l2.1,1.5v2.2h-7.4v1.4h7.4v0.2l2.1,1.5v2.2h-9.5v12.8h-8.9L98.7,378.6z
			 M114.6,360.2v-1.8H98.7v20h8.6v-1.9v-10.9h9.5v-1.9h-9.5v-3.5H114.6z M99.2,358.7h0.9V378h-0.9V358.7z M100.5,358.7h0.8V378h-0.8
			V358.7z M101.8,358.7h0.8V378h-0.8V358.7z M103,358.7h0.9V378H103V358.7z M104.4,358.7h0.8V378h-0.8V358.7z M105.9,358.7h0.8V378
			h-0.8V358.7z"/>
		<path class="st7" d="M130.3,377.8c-0.7-0.3-1.3-0.8-1.8-1.2c-0.5-0.5-1-1.1-1.4-1.8c-0.7-1.3-1.1-2.8-1.2-4.3v-12.6h8.6v0.2
			l2.1,1.5v12.7c0,1.1,0.1,1.9,0.2,2.3c0.1,0.5,0.2,0.8,0.3,1.1h0c0,0,0,0.1,0.1,0.1c0.9,0.4,1.8,0.6,2.8,0.6c0.9,0,1.8-0.1,2.6-0.4
			s1.5-0.7,1.9-1.3c0.4-0.4,0.7-0.9,1-1.6c0.2-0.6,0.3-1.3,0.4-1.9v-13.3h2.4v0.2l2.1,1.5v13.2c0,0.8-0.1,1.6-0.4,2.3
			c-0.2,0.7-0.6,1.4-1,2c-0.4,0.6-0.9,1.1-1.4,1.6c-0.6,0.5-1.2,0.8-1.8,1.1c-0.8,0.3-1.7,0.6-2.9,0.8c-1.1,0.2-2.2,0.3-3.4,0.3
			c-0.6,0-1.1,0-1.7-0.1c-0.6-0.1-1.1-0.1-1.5-0.2c-0.9-0.2-1.8-0.4-2.6-0.7c-0.8-0.3-1.6-0.7-2.3-1.2c-0.1-0.1-0.3-0.2-0.4-0.3
			L130.3,377.8z M146.1,358.2v10.5v2.6c0,0.7-0.2,1.3-0.4,2c-0.2,0.7-0.6,1.2-1,1.6c-0.4,0.5-0.8,0.8-1.4,1.1
			c-0.6,0.3-1.2,0.5-1.8,0.6c-0.6,0.1-1.3,0.2-2,0.1c-0.7,0-1.3-0.1-2-0.3s-1.2-0.5-1.7-0.8c-0.5-0.4-0.9-0.8-1.1-1.3
			c0-0.1-0.1-0.3-0.2-0.4c-0.1-0.2-0.1-0.4-0.2-0.6c0-0.3-0.1-0.6-0.1-1c0-0.4-0.1-0.9-0.1-1.4v-12.5h-8v1.7v3.5v1.9v3.1
			c0,0.3,0,0.7,0,1c0,0.3,0,0.7,0,1.1c0,1.5,0.4,2.9,1.1,4.2c0.4,0.7,0.8,1.2,1.3,1.7c0.5,0.5,1,0.8,1.6,1.2
			c0.6,0.3,1.2,0.6,1.9,0.8c0.7,0.2,1.4,0.4,2.1,0.5c0.7,0.2,1.4,0.3,2.2,0.3c0.8,0,1.7,0,2.5-0.1c0.9-0.1,1.7-0.2,2.5-0.4
			s1.5-0.4,2.1-0.6c0.6-0.3,1.2-0.6,1.7-1.1c0.6-0.5,1-1,1.4-1.6c0.4-0.6,0.7-1.2,1-1.9c0.2-0.7,0.3-1.4,0.3-2.2v-2.6v-10.5H146.1z
			 M127.7,374.2l-0.9-2.6v-13h0.9V374.2z M129.1,376.2l-1-1v-16.5h1V376.2z M128.3,359.9L128.3,359.9L128.3,359.9L128.3,359.9z
			 M130.6,377.3l-0.9-0.7v-17.9h0.9V377.3z M132.2,377.9l-1-0.4v-18.8h0.9L132.2,377.9z M133.6,378.4l-0.9-0.4v-19.3h0.9V378.4z
			 M136.1,375.4L136.1,375.4L136.1,375.4z"/>
		<path class="st7" d="M176.3,358.3h2.4v0.2l2.1,1.5v20.2h-2.2l-2.1-1.5h-0.3l-0.1-1l-7.9-5.7l-5.6-4.1v12.3h-2.3l-2.1-1.5h-0.3
			v-20.4l7.3-0.1l10.9,7.8V363l0-0.4V358.3z M176.6,362.6l0,0.4v3.5l-11.3-8l-6.9,0.1v4v0.9v0.9v13.9h1.9v-12.6l16.2,11.7h0.1v0.9
			h1.8v-19.8h-1.8V362.6z M158.9,360.6l0-1l19,13.7v1.2L158.9,360.6z M158.9,362.3l0-1l19,13.7v1.1L158.9,362.3z M158.9,363.9l0-1
			l19,13.7v1.1L158.9,363.9z M159,358.9l1.4,0.1l17.4,12.5v1.2L159,358.9z M161.4,358.9l1.5,0l15,10.8v1.1L161.4,358.9z
			 M163.7,358.9l1.5,0l12.6,9l0,1.1L163.7,358.9z"/>
		<path class="st7" d="M188.8,378.6h-0.3v-20.4h9.2v0.2l2.1,1.5v6.9l12.8-8.6h4.7l-0.3,0.2l2.2,1.5l-9.6,6.6l5.4,13.6h-2.6l-2.1-1.5
			h-0.2l-3.9-9.8l-6.4,4.3v7h-9L188.8,378.6z M197.4,368.9v-10.3h-8.6v19.8h8.6v-6.9l8-5.4l4.8,12.4h2.2l-5.3-13.5l9.3-6.3h-3.7
			L197.4,368.9z M189.3,358.9h0.9V378h-0.9V358.9z M190.6,358.9h0.8V378h-0.8V358.9z M191.9,358.9h0.8V378h-0.8V358.9z M193.2,358.9
			h0.9V378h-0.9V358.9z M194.5,358.9h0.8V378h-0.8V358.9z M196,358.9h0.8V378H196V358.9z"/>
		<path class="st7" d="M236.9,358.4l2,1.4l3,4.5c0.8-1,1.7-2.1,2.6-3.1c0.9-1,1.8-2.1,2.6-3.1h3.3l-0.1,0.2l2.2,1.5l-7.4,8.9v11.4
			h-9.9l-2.1-1.5h-0.3l0.1-9.6c-0.2-0.2-0.3-0.5-0.5-0.8c-0.2-0.3-0.4-0.5-0.6-0.8c-1.1-1.5-2.2-3.1-3.3-4.8
			c-1.1-1.7-2.2-3.2-3.2-4.7h11.6L236.9,358.4z M236.6,358.4h-10.9l7.4,10.6l-0.1,9.4h9.6V367l7.2-8.6h-2.6l-5.9,7.1L236.6,358.4z
			 M240,378.1l-13.4-19.3h0.9l13.3,19.3H240z M242,378.1h-0.5l-13.4-19.3h0.9l12.9,18.8L242,378.1z M242,376.5l-12.2-17.8h1.2
			l11,16.4L242,376.5z M242.1,374l-10.4-15.3h1.1l9.3,13.8L242.1,374z M242.1,371.5l-8.7-12.8l0.9,0l7.7,11.5L242.1,371.5z
			 M242.1,369.1l-7.1-10.4l1,0l6.1,8.8L242.1,369.1z"/>
		<path class="st7" d="M273.3,378.6h-0.3v-20.6h16.5v0.2l2.1,1.5v2.2h-7.4v1.4h7.4v0.2l2.1,1.5v2.2h-9.5v12.8h-8.9L273.3,378.6z
			 M289.3,360.2v-1.8h-15.9v20h8.6v-1.9v-10.9h9.5v-1.9h-9.5v-3.5H289.3z M273.8,358.7h0.9V378h-0.9V358.7z M275.2,358.7h0.8V378
			h-0.8V358.7z M276.5,358.7h0.8V378h-0.8V358.7z M277.7,358.7h0.9V378h-0.9V358.7z M279.1,358.7h0.8V378h-0.8V358.7z M280.5,358.7
			h0.8V378h-0.8V358.7z"/>
		<path class="st7" d="M305,377.8c-0.7-0.3-1.3-0.8-1.8-1.2c-0.5-0.5-1-1.1-1.4-1.8c-0.7-1.3-1.1-2.8-1.2-4.3v-12.6h8.6v0.2l2.1,1.5
			v12.7c0,1.1,0.1,1.9,0.2,2.3c0.1,0.5,0.2,0.8,0.3,1.1h0c0,0,0,0.1,0.1,0.1c0.9,0.4,1.8,0.6,2.8,0.6c0.9,0,1.8-0.1,2.6-0.4
			c0.8-0.3,1.5-0.7,1.9-1.3c0.4-0.4,0.8-0.9,1-1.6c0.2-0.6,0.3-1.3,0.4-1.9v-13.3h2.4v0.2l2.1,1.5v13.2c0,0.8-0.1,1.6-0.4,2.3
			c-0.2,0.7-0.6,1.4-1,2c-0.4,0.6-0.9,1.1-1.4,1.6c-0.6,0.5-1.2,0.8-1.8,1.1c-0.8,0.3-1.7,0.6-2.9,0.8s-2.2,0.3-3.4,0.3
			c-0.6,0-1.1,0-1.7-0.1c-0.6-0.1-1.1-0.1-1.5-0.2c-0.9-0.2-1.8-0.4-2.6-0.7c-0.8-0.3-1.6-0.7-2.3-1.2c-0.1-0.1-0.3-0.2-0.4-0.3
			L305,377.8z M320.8,358.2v10.5v2.6c0,0.7-0.2,1.3-0.4,2s-0.6,1.2-1,1.6c-0.4,0.5-0.8,0.8-1.4,1.1c-0.6,0.3-1.2,0.5-1.8,0.6
			c-0.6,0.1-1.3,0.2-2,0.1c-0.7,0-1.3-0.1-2-0.3s-1.2-0.5-1.7-0.8c-0.5-0.4-0.9-0.8-1.1-1.3c0-0.1-0.1-0.3-0.2-0.4
			c-0.1-0.2-0.1-0.4-0.2-0.6c0-0.3-0.1-0.6-0.1-1c0-0.4-0.1-0.9-0.1-1.4v-12.5h-8v1.7v3.5v1.9v3.1c0,0.3,0,0.7,0,1
			c0,0.3,0,0.7,0,1.1c0,1.5,0.4,2.9,1.1,4.2c0.4,0.7,0.8,1.2,1.3,1.7s1,0.8,1.6,1.2s1.2,0.6,1.9,0.8c0.7,0.2,1.4,0.4,2.1,0.5
			c0.7,0.2,1.4,0.3,2.2,0.3c0.8,0,1.7,0,2.5-0.1c0.9-0.1,1.7-0.2,2.5-0.4s1.5-0.4,2.1-0.6c0.6-0.3,1.2-0.6,1.7-1.1
			c0.6-0.5,1-1,1.4-1.6c0.4-0.6,0.7-1.2,1-1.9c0.2-0.7,0.3-1.4,0.3-2.2v-2.6v-10.5H320.8z M302.3,374.2l-0.9-2.6v-13h0.9V374.2z
			 M303.8,376.2l-1-1v-16.5h1V376.2z M303,359.9L303,359.9L303,359.9L303,359.9z M305.3,377.3l-0.9-0.7v-17.9h0.9V377.3z
			 M306.9,377.9l-1-0.4v-18.8h0.9L306.9,377.9z M308.3,378.4l-0.9-0.4v-19.3h0.9V378.4z M310.7,375.4L310.7,375.4L310.7,375.4z"/>
		<path class="st7" d="M356,361.3c0.8,0.6,1.5,1.4,2,2.4c0.5,1,0.8,2,0.8,3.2c0,0.9-0.2,1.8-0.5,2.6c-0.4,0.8-0.8,1.5-1.5,2.1
			c-0.6,0.6-1.3,1.1-2.1,1.4c-0.8,0.4-1.6,0.6-2.5,0.7l3.8,6.6h-2.5l-2.1-1.5h-0.2l-3-5.1h-4.1v6.6h-9.1l-2.1-1.5h-0.3v-20.4h17
			c1,0,1.9,0.2,2.8,0.6c0.9,0.4,1.6,0.9,2.2,1.5l1,0.8h0l0.1,0.1C356,361.3,356,361.3,356,361.3z M342.8,358.5h-9.8v19.8h8.7v-1.9
			v-3.1v-1.5h5.8l3.8,6.6h2.1l-3.8-6.6c0.9,0,1.8-0.2,2.6-0.5c0.8-0.3,1.5-0.8,2.1-1.4c0.6-0.6,1.1-1.3,1.5-2.1s0.6-1.7,0.6-2.6
			c0-0.9-0.2-1.8-0.5-2.6c-0.3-0.8-0.8-1.5-1.4-2.1c-0.6-0.6-1.3-1.1-2.1-1.4c-0.8-0.3-1.7-0.5-2.5-0.5H342.8z M333.7,358.9h0.9V378
			h-0.9V358.9z M334.9,358.9h0.8V378h-0.8V358.9z M336.2,358.9h0.8V378h-0.8V358.9z M337.4,358.9h0.9V378h-0.9V358.9z M338.8,358.9
			h0.8V378h-0.8V358.9z M340.2,358.9h0.8V378h-0.8V358.9z M341.8,369.9v-4.2v-0.1v-1.1v-0.8v-0.2v-0.9v-2.1v-0.1h8
			c0.6,0,1.2,0.1,1.8,0.4c0.6,0.3,1.1,0.6,1.5,1c0.4,0.4,0.8,0.9,1,1.5s0.4,1.2,0.4,1.9c0,0.6-0.1,1.2-0.4,1.8s-0.6,1.1-1,1.5
			c-0.4,0.4-0.9,0.8-1.5,1s-1.2,0.4-1.8,0.4H341.8z M344.2,369.6h5.6c0.6,0,1.1-0.1,1.7-0.4s1-0.6,1.4-1c0.4-0.4,0.7-0.9,1-1.4
			c0.2-0.5,0.4-1.1,0.4-1.7c0-0.5-0.1-1-0.3-1.5c-0.2-0.5-0.4-0.9-0.7-1.3c-0.4-0.1-0.8-0.2-1.2-0.2l-7.8,0.1V369.6z M355.9,361.2
			L355.9,361.2l0.1,0.1L355.9,361.2z"/>
		<path class="st7" d="M384.5,358.3h2.4v0.2l2.1,1.5v20.2h-2.2l-2.1-1.5h-0.3l-0.1-1l-7.9-5.7l-5.6-4.1v12.3h-2.3l-2.1-1.5h-0.3
			v-20.4l7.3-0.1l10.9,7.8V363l0-0.4V358.3z M384.7,362.6l0,0.4v3.5l-11.3-8l-6.9,0.1v4v0.9v0.9v13.9h1.9v-12.6l16.2,11.7h0.1v0.9
			h1.8v-19.8h-1.8V362.6z M367,360.6l0-1l19,13.7v1.2L367,360.6z M367,362.3l0-1l19,13.7v1.1L367,362.3z M367,363.9l0-1l19,13.7v1.1
			L367,363.9z M367.2,358.9l1.4,0.1l17.4,12.5v1.2L367.2,358.9z M369.5,358.9l1.5,0l15,10.8v1.1L369.5,358.9z M371.9,358.9l1.5,0
			l12.6,9l0,1.1L371.9,358.9z"/>
		<path class="st7" d="M408,359.9v20.2h-9l-2.1-1.5h-0.3v-20.4h9.2v0.2L408,359.9z M405.6,378.3v-1.9v-10.9v-1.9v-3.5v-1.7H397v19.8
			H405.6z M397.5,358.7h0.9V378h-0.9V358.7z M398.9,358.7h0.8V378h-0.8V358.7z M400.1,358.7h0.8V378h-0.8V358.7z M401.4,358.7h0.9
			V378h-0.9V358.7z M402.7,358.7h0.9V378h-0.9V358.7z M404.2,358.7h0.8V378h-0.8V358.7z"/>
		<path class="st7" d="M436.9,368.4c0,0,0.1,0.1,0.2,0.1l0.2,0.1c0.3,0.3,0.7,0.8,1.1,1.4c0.3,0.5,0.5,1.1,0.6,1.7
			c0.1,0.6,0.2,1.2,0.2,1.8c0,0.6-0.2,1.2-0.4,1.8c-0.2,0.6-0.5,1.2-0.9,1.8c-0.4,0.6-0.9,1.1-1.5,1.6c-0.6,0.5-1.2,0.9-2,1.2
			c-0.7,0.3-1.6,0.6-2.4,0.7s-1.8,0.2-2.8,0.2c-0.9,0-1.8-0.1-2.8-0.2c-1-0.1-1.9-0.4-3-0.8c-0.4-0.2-0.8-0.4-1.3-0.6
			c-0.4-0.2-0.9-0.5-1.4-0.9l-0.4-0.3l0,0l-0.4-0.3c-0.9-0.5-1.8-1.1-2.8-2c-1-0.9-2-2-3.1-3.3l2.2-1.2l0.3,0.4l1.9,1.4
			c0.2,0.3,0.5,0.6,0.7,0.9c0.2,0.3,0.4,0.5,0.7,0.8c1.2,0.8,2.4,1.3,3.8,1.5c0.5,0.1,1,0.2,1.5,0.2c0.5,0,1,0.1,1.5,0
			c0.1,0,0.4-0.1,0.7-0.2c0.3-0.1,0.7-0.2,1.1-0.4c0.3-0.2,0.7-0.4,1.1-0.8c0.4-0.3,0.7-0.7,0.9-1c0.2-0.3-0.2-0.9-1.3-1.7
			c-0.8-0.5-1.7-1-2.8-1.6c-1.1-0.6-2.3-1.2-3.6-1.9l-1.7-1.2c-0.1,0-0.2-0.1-0.3-0.1c-0.1,0-0.2-0.1-0.3-0.1
			c-0.9-0.6-1.5-1.3-1.9-2.1c-0.2-0.5-0.3-0.9-0.3-1.4c0-0.5,0-0.9,0.1-1.4c0.2-0.9,0.6-1.8,1.3-2.6c0.7-0.8,1.5-1.4,2.5-1.8
			c0.4-0.1,0.8-0.2,1.2-0.3s1-0.1,1.6-0.1c0.1,0,0.3,0,0.5,0s0.4,0,0.5,0c0.8,0.1,1.8,0.2,3,0.5c1.2,0.3,2.6,0.8,4.1,1.5l-0.1,0.1
			l2.1,1.5l-1,1.7c-1.4-0.5-2.6-0.8-3.5-1c-0.9-0.2-1.7-0.3-2.3-0.3c-0.6,0-1.1,0.1-1.4,0.3c-0.3,0.2-0.4,0.4-0.4,0.6l3.6,1.8
			c1.3,0.6,2.3,1.2,3.2,1.6s1.4,0.8,1.6,1l0.3,0.4L436.9,368.4z M427,379.1c1,0,1.9-0.1,2.8-0.2c0.9-0.1,1.7-0.4,2.4-0.7
			c0.7-0.3,1.4-0.7,1.9-1.2c0.6-0.5,1.1-1,1.4-1.5c0.4-0.6,0.7-1.2,0.9-1.7c0.2-0.6,0.3-1.2,0.3-1.8c0-0.6-0.1-1.2-0.2-1.7
			c-0.1-0.6-0.3-1.1-0.6-1.6c-0.3-0.5-0.7-0.9-1.1-1.3c-0.4-0.4-2-1.2-4.6-2.6c-2.7-1.3-4.2-2.1-4.6-2.3c-0.4-0.2-0.7-0.4-0.8-0.5
			c-0.2-0.1-0.3-0.3-0.4-0.5c-0.1-0.2-0.1-0.5,0-0.8c0.1-0.3,0.4-0.5,1-0.6c0.5-0.1,1.3-0.1,2.4,0.1c1.1,0.1,2.5,0.5,4.2,1.1
			l0.8-1.4c-1.5-0.7-2.7-1.2-3.8-1.4c-1.1-0.2-2.1-0.4-2.9-0.5c-0.9,0-1.6,0-2.2,0c-0.6,0.1-1.1,0.2-1.6,0.3c-1,0.4-1.8,0.9-2.4,1.7
			c-0.7,0.8-1.1,1.6-1.2,2.4c-0.2,0.9-0.1,1.8,0.3,2.7c0.4,0.8,1,1.5,1.9,2.1c7.2,3.7,10.4,6,9.9,7c-0.6,1-1.3,1.6-2.1,2
			c-0.8,0.3-1.5,0.5-2,0.6c-0.5,0-1,0-1.5,0c-0.5,0-1-0.1-1.5-0.2c-1.3-0.2-2.6-0.7-3.8-1.5c-1.2-0.7-2.4-1.8-3.5-3.3l-1.7,0.9
			c0.6,0.8,1.2,1.5,1.8,2.1c0.6,0.6,1.1,1.1,1.7,1.5c0.6,0.4,1.1,0.8,1.6,1.1c0.5,0.3,1,0.5,1.6,0.7c1,0.4,2,0.7,2.9,0.8
			S426.1,379.1,427,379.1z M436.1,373.5l-16.8-9l-0.2-0.8l17.1,9L436.1,373.5z M436.4,372.1l-17.2-9l0.1-0.8l16.8,8.9L436.4,372.1z
			 M436.1,370.5l-16.7-8.6l0.2-0.7l16.1,8.3L436.1,370.5z M435.4,374.7l-14.8-8.2l-1.1-1.2l16.3,8.7L435.4,374.7z M435.7,369
			l-15.8-8.2l0.4-0.6l14.3,7.5L435.7,369z M434.5,375.8l-2.7-1.8l-1-1.3l4.4,2.4L434.5,375.8z M433.3,376.8l-2.6-1.7l0.4-0.7
			l2.8,1.8L433.3,376.8z"/>
		<path class="st7" d="M466.4,358.4l2.1,1.5v20.2h-2.2l-2.1-1.5H464v-12.4h-7.2v13.9h-9l-2.1-1.5h-0.3v-20.4h9.2v0.2l2.1,1.5v2.3
			h7.2v-4h2.4V358.4z M466.1,358.5h-1.8v4h-9.9v-2.3v-1.7h-8.6v19.8h8.6v-12.7v-1.2h9.9v13.9h1.8V358.5z M446.4,358.8h0.9v19.3h-0.9
			V358.8z M447.7,358.8h0.8v19.3h-0.8V358.8z M449,358.8h0.8v19.3H449V358.8z M450.2,358.8h0.9v19.3h-0.9V358.8z M451.6,358.8h0.9
			v19.3h-0.9V358.8z M453,358.8h0.9v19.3H453V358.8z"/>
	</g>
</g>
</svg>
